<svg width="30" height="30" viewBox="0 0 30 30" fill="none" xmlns="http://www.w3.org/2000/svg">
<g clip-path="url(#clip0_386_2494)">
<path d="M15 26.25C21.2132 26.25 26.25 21.2132 26.25 15C26.25 8.7868 21.2132 3.75 15 3.75C8.7868 3.75 3.75 8.7868 3.75 15C3.75 21.2132 8.7868 26.25 15 26.25Z" stroke="#EEEEEE" stroke-width="2" stroke-linecap="round" stroke-linejoin="round"/>
<path d="M15 18.75C17.5888 18.75 19.6875 16.6513 19.6875 14.0625C19.6875 11.4737 17.5888 9.375 15 9.375C12.4112 9.375 10.3125 11.4737 10.3125 14.0625C10.3125 16.6513 12.4112 18.75 15 18.75Z" stroke="#EEEEEE" stroke-width="2" stroke-linecap="round" stroke-linejoin="round"/>
<path d="M7.47656 23.3638C8.18193 21.9744 9.25823 20.8075 10.5862 19.9924C11.9141 19.1773 13.4418 18.7458 15 18.7458C16.5582 18.7458 18.0859 19.1773 19.4138 19.9924C20.7418 20.8075 21.8181 21.9744 22.5234 23.3638" stroke="#EEEEEE" stroke-width="2" stroke-linecap="round" stroke-linejoin="round"/>
</g>
<defs>
<clipPath id="clip0_386_2494">
<rect width="30" height="30" fill="white"/>
</clipPath>
</defs>
</svg>
