<svg width="78" height="78" viewBox="0 0 78 78" fill="none" xmlns="http://www.w3.org/2000/svg">
<path d="M9.3877 24.7133H68.655V68.1324C68.655 69.7893 67.3118 71.1324 65.655 71.1324H12.3877C10.7308 71.1324 9.3877 69.7892 9.3877 68.1324V24.7133Z" fill="#360146"/>
<path d="M18.0913 43.7785C18.0913 41.4895 19.9469 39.6339 22.2359 39.6339H33.4262C35.7152 39.6339 37.5708 41.4895 37.5708 43.7785V71.1326H18.0913V43.7785Z" fill="#FFF0CC"/>
<rect x="43.373" y="39.6339" width="19.4795" height="16.5783" rx="2.48674" fill="#FFF0CC"/>
<path d="M9.4113 12.8861L4 27.1999H74.4576L68.0855 12.6856C67.4244 11.1797 65.9353 10.2072 64.2906 10.2072H13.2881C11.5645 10.2072 10.0208 11.2739 9.4113 12.8861Z" fill="#FFF0CC"/>
<path d="M21.8216 27.1999C21.8216 29.3983 20.8828 31.5067 19.2117 33.0612C17.5406 34.6157 15.2741 35.489 12.9108 35.489C10.5475 35.489 8.28102 34.6157 6.60992 33.0612C4.93882 31.5067 4 29.3983 4 27.1999L12.9108 27.1999H21.8216Z" fill="#D49600"/>
<path d="M57.0501 27.1999C57.0501 29.3983 56.1113 31.5067 54.4402 33.0612C52.7691 34.6157 50.5026 35.489 48.1393 35.489C45.776 35.489 43.5095 34.6157 41.8384 33.0612C40.1673 31.5067 39.2285 29.3983 39.2285 27.1999L48.1393 27.1999H57.0501Z" fill="#D49600"/>
<path d="M39.229 27.1999C39.229 29.3983 38.312 31.5067 36.6797 33.0612C35.0475 34.6157 32.8337 35.489 30.5254 35.489C28.217 35.489 26.0032 34.6157 24.371 33.0612C22.7388 31.5067 21.8218 29.3983 21.8218 27.1999L30.5254 27.1999H39.229Z" fill="#FFD980"/>
<path d="M74.458 27.1999C74.458 29.3983 73.541 31.5067 71.9087 33.0612C70.2765 34.6157 68.0627 35.489 65.7544 35.489C63.446 35.489 61.2322 34.6157 59.6 33.0612C57.9678 31.5067 57.0508 29.3983 57.0508 27.1999L65.7544 27.1999H74.458Z" fill="#FFD980"/>
<path d="M22.4433 10.2072L21.8216 27.1999H4L9.4113 12.8861C10.0208 11.2739 11.5645 10.2072 13.2881 10.2072H22.4433Z" fill="#FFB400"/>
<path d="M57.2579 27.2H39.229L38.1929 10H50.4193L57.2579 27.2Z" fill="#FFB400"/>
<path d="M20.9932 52.8961L20.9932 57.8696" stroke="#360146" stroke-width="1.65783" stroke-linecap="round"/>
</svg>
