<svg width="78" height="78" viewBox="0 0 78 78" fill="none" xmlns="http://www.w3.org/2000/svg">
<path d="M12.765 16.7313L10.377 14.3433" stroke="#FFB400" stroke-width="2.14925" stroke-linecap="round"/>
<path d="M17.7355 14.3751L17.8564 11" stroke="#FFB400" stroke-width="2.14925" stroke-linecap="round"/>
<path d="M10.3684 21.8413L7 22.0858" stroke="#FFB400" stroke-width="2.14925" stroke-linecap="round"/>
<path d="M23.5113 16.0136L25.9717 13.7002" stroke="#FFB400" stroke-width="2.14925" stroke-linecap="round"/>
<path d="M12.0409 27.4778L9.8623 30.0583" stroke="#FFB400" stroke-width="2.14925" stroke-linecap="round"/>
<path d="M17.3383 23.3839L32.9317 62.315C33.3515 63.3631 34.7623 63.5364 35.4233 62.6211L42.2542 53.1631C42.7617 52.4603 43.7722 52.3657 44.4014 52.962L58.0988 65.9439C58.7013 66.5149 59.6614 66.4561 60.1897 65.8158L62.3437 63.2048C62.8055 62.6451 62.776 61.8285 62.2749 61.3036L49.3099 47.7212C48.6873 47.069 48.8147 46.0107 49.5743 45.5248L58.9899 39.5023C59.9767 38.871 59.8302 37.3867 58.739 36.9605L19.1896 21.5165C18.0211 21.0601 16.8719 22.2194 17.3383 23.3839Z" fill="#360146" stroke="black" stroke-width="0.238806"/>
<path d="M34.9746 31.7761L47.6313 37.0299" stroke="#6B028D" stroke-width="2.14925" stroke-linecap="round"/>
<path d="M26.6504 27.8779L31.1196 29.9426" stroke="#6B028D" stroke-width="2.14925" stroke-linecap="round"/>
</svg>
