<svg width="48" height="78" viewBox="0 0 48 78" fill="none" xmlns="http://www.w3.org/2000/svg">
<rect width="47.2727" height="78" rx="5.25252" fill="#360146"/>
<rect x="2.10059" y="7.87891" width="43.0707" height="62.2424" fill="#FFF0CC"/>
<rect x="16.0195" y="71.4341" width="14.9697" height="4.9899" rx="2.49495" fill="#6B028D"/>
<circle cx="23.6365" cy="3.93888" r="0.787879" fill="#D081E9"/>
<g clip-path="url(#clip0_388_1000)">
<path d="M23.6362 51.1463C30.272 51.1463 35.6514 45.7669 35.6514 39.1311C35.6514 32.4953 30.272 27.116 23.6362 27.116C17.0005 27.116 11.6211 32.4953 11.6211 39.1311C11.6211 45.7669 17.0005 51.1463 23.6362 51.1463Z" stroke="#FFB400" stroke-width="2.00253" stroke-linecap="round" stroke-linejoin="round"/>
<path d="M23.6362 43.1363C26.4011 43.1363 28.6425 40.8949 28.6425 38.13C28.6425 35.3651 26.4011 33.1237 23.6362 33.1237C20.8713 33.1237 18.6299 35.3651 18.6299 38.13C18.6299 40.8949 20.8713 43.1363 23.6362 43.1363Z" stroke="#FFB400" stroke-width="2.00253" stroke-linecap="round" stroke-linejoin="round"/>
<path d="M15.6016 48.0636C16.3549 46.5797 17.5044 45.3335 18.9227 44.4629C20.3409 43.5924 21.9726 43.1316 23.6367 43.1316C25.3008 43.1316 26.9324 43.5924 28.3507 44.4629C29.769 45.3335 30.9185 46.5797 31.6718 48.0636" stroke="#FFB400" stroke-width="2.00253" stroke-linecap="round" stroke-linejoin="round"/>
</g>
<defs>
<clipPath id="clip0_388_1000">
<rect width="32.0404" height="32.0404" fill="white" transform="translate(7.61621 23.1108)"/>
</clipPath>
</defs>
</svg>
