<svg width="78" height="51" viewBox="0 0 78 51" fill="none" xmlns="http://www.w3.org/2000/svg">
<g filter="url(#filter0_d_388_976)">
<path fill-rule="evenodd" clip-rule="evenodd" d="M56.7504 4.36357C57.8417 4.20054 58.5946 3.18147 58.432 2.08741L58.4319 2.08721L69.576 0.422492C71.1388 0.189027 72.5941 1.26686 72.8264 2.8299L73.8376 9.63302C70.498 11.7454 68.5352 15.7007 69.1545 19.8676C69.7739 24.0345 72.8016 27.2443 76.6104 28.2889L77.5794 34.8083C77.8117 36.3714 76.733 37.8277 75.1702 38.0612L64.0267 39.7258C63.8639 38.6319 62.8475 37.8773 61.7563 38.0403C60.6651 38.2033 59.9123 39.2222 60.0747 40.3162L8.42404 48.0319C6.86118 48.2653 5.4059 47.1875 5.17359 45.6245L4.24627 39.3854C7.98543 37.3972 10.2524 33.201 9.59311 28.7651C8.9338 24.3292 5.54503 20.9778 1.39013 20.1689L0.420642 13.6461C0.188328 12.083 1.26695 10.6267 2.82982 10.3932L54.48 2.67757L54.48 2.67776C54.6426 3.77183 55.6591 4.52659 56.7504 4.36357ZM57.5696 5.97698C57.5231 5.66437 57.2321 5.4488 56.9195 5.4955C56.6069 5.54219 56.3912 5.83346 56.4377 6.14607L56.5999 7.23763C56.6464 7.55024 56.9374 7.7658 57.25 7.71911C57.5626 7.67242 57.7783 7.38115 57.7318 7.06854L57.5696 5.97698ZM58.0563 9.25167C58.0099 8.93906 57.7188 8.72349 57.4062 8.77018C57.0937 8.81688 56.8779 9.10815 56.9244 9.42075L57.2489 11.6039C57.2953 11.9165 57.5864 12.1321 57.899 12.0854C58.2115 12.0387 58.4273 11.7474 58.3808 11.4348L58.0563 9.25167ZM58.7053 13.6179C58.6588 13.3053 58.3678 13.0897 58.0552 13.1364C57.7426 13.1831 57.5269 13.4744 57.5734 13.787L57.8978 15.9701C57.9443 16.2827 58.2353 16.4983 58.5479 16.4516C58.8605 16.4049 59.0762 16.1136 59.0298 15.801L58.7053 13.6179ZM59.3542 17.9842C59.3078 17.6716 59.0167 17.456 58.7041 17.5027C58.3916 17.5494 58.1758 17.8406 58.2223 18.1533L58.5468 20.3364C58.5932 20.649 58.8843 20.8646 59.1969 20.8179C59.5094 20.7712 59.7252 20.4799 59.6787 20.1673L59.3542 17.9842ZM60.0032 22.3504C59.9567 22.0378 59.6657 21.8222 59.3531 21.8689C59.0405 21.9156 58.8248 22.2069 58.8713 22.5195L59.1957 24.7026C59.2422 25.0152 59.5333 25.2308 59.8458 25.1841C60.1584 25.1374 60.3741 24.8461 60.3277 24.5335L60.0032 22.3504ZM60.6521 26.7167C60.6057 26.4041 60.3146 26.1885 60.002 26.2352C59.6895 26.2819 59.4737 26.5731 59.5202 26.8858L59.8447 29.0689C59.8912 29.3815 60.1822 29.5971 60.4948 29.5504C60.8074 29.5037 61.0231 29.2124 60.9766 28.8998L60.6521 26.7167ZM61.3011 31.0829C61.2546 30.7703 60.9636 30.5547 60.651 30.6014C60.3384 30.6481 60.1227 30.9394 60.1692 31.252L60.4936 33.4351C60.5401 33.7477 60.8312 33.9633 61.1437 33.9166C61.4563 33.8699 61.672 33.5786 61.6256 33.266L61.3011 31.0829ZM61.95 35.4492C61.9036 35.1365 61.6125 34.921 61.3 34.9677C60.9874 35.0144 60.7717 35.3056 60.8181 35.6182L60.9804 36.7098C61.0268 37.0224 61.3179 37.238 61.6305 37.1913C61.943 37.1446 62.1587 36.8533 62.1123 36.5407L61.95 35.4492Z" fill="#FFD980"/>
<path d="M58.432 2.08741L58.2905 2.10854L58.432 2.08741ZM58.4319 2.08721L58.4109 1.9457L58.2694 1.96684L58.2905 2.10835L58.4319 2.08721ZM72.8264 2.8299L72.6849 2.85103L72.8264 2.8299ZM73.8376 9.63302L73.914 9.75393L73.9927 9.70409L73.979 9.61188L73.8376 9.63302ZM76.6104 28.2889L76.7519 28.2677L76.7382 28.1755L76.6483 28.1509L76.6104 28.2889ZM64.0267 39.7258L63.8852 39.747L63.9062 39.8885L64.0477 39.8673L64.0267 39.7258ZM60.0747 40.3162L60.0957 40.4577L60.2372 40.4365L60.2162 40.2951L60.0747 40.3162ZM8.42404 48.0319L8.44508 48.1734L8.42404 48.0319ZM5.17359 45.6245L5.03209 45.6456L5.17359 45.6245ZM4.24627 39.3854L4.17919 39.2591L4.08992 39.3065L4.10478 39.4065L4.24627 39.3854ZM1.39013 20.1689L1.24864 20.19L1.2635 20.29L1.3627 20.3093L1.39013 20.1689ZM0.420642 13.6461L0.279151 13.6672L0.420642 13.6461ZM2.82982 10.3932L2.80879 10.2517L2.82982 10.3932ZM54.48 2.67757L54.6215 2.65643L54.6004 2.51492L54.4589 2.53606L54.48 2.67757ZM54.48 2.67776L54.6215 2.65662L54.48 2.67776ZM58.7053 13.6179L58.8468 13.5968L58.7053 13.6179ZM57.5734 13.787L57.7148 13.7659L57.5734 13.787ZM57.8978 15.9701L57.7563 15.9913L57.8978 15.9701ZM59.0298 15.801L58.8883 15.8222L59.0298 15.801ZM59.3542 17.9842L59.4957 17.963L59.3542 17.9842ZM58.2223 18.1533L58.3638 18.1321L58.2223 18.1533ZM58.5468 20.3364L58.4053 20.3575L58.5468 20.3364ZM59.6787 20.1673L59.5372 20.1884L59.6787 20.1673ZM58.8713 22.5195L58.7298 22.5406L58.8713 22.5195ZM59.1957 24.7026L59.3372 24.6815L59.1957 24.7026ZM60.1692 31.252L60.3107 31.2309L60.1692 31.252ZM60.4936 33.4351L60.3521 33.4563L60.4936 33.4351ZM60.8181 35.6182L60.6766 35.6394L60.8181 35.6182ZM60.9804 36.7098L61.1218 36.6887L60.9804 36.7098ZM58.2905 2.10854C58.4415 3.12478 57.7422 4.07076 56.7294 4.22206L56.7715 4.50507C57.9412 4.33033 58.7476 3.23817 58.5735 2.06627L58.2905 2.10854ZM58.2905 2.10835L58.2905 2.10854L58.5735 2.06627L58.5734 2.06607L58.2905 2.10835ZM69.5549 0.280985L58.4109 1.9457L58.453 2.22872L69.597 0.563998L69.5549 0.280985ZM72.9679 2.80876C72.724 1.16757 71.1959 0.035847 69.5549 0.280985L69.597 0.563998C71.0817 0.342207 72.4642 1.36615 72.6849 2.85103L72.9679 2.80876ZM73.979 9.61188L72.9679 2.80876L72.6849 2.85103L73.6961 9.65416L73.979 9.61188ZM69.296 19.8465C68.6853 15.7375 70.6207 11.837 73.914 9.75393L73.7612 9.51211C70.3753 11.6538 68.3851 15.664 69.013 19.8887L69.296 19.8465ZM76.6483 28.1509C72.8923 27.1208 69.9067 23.9554 69.296 19.8465L69.013 19.8887C69.641 24.1135 72.7109 27.3678 76.5724 28.4268L76.6483 28.1509ZM77.7208 34.7872L76.7519 28.2677L76.4689 28.31L77.4379 34.8295L77.7208 34.7872ZM75.1912 38.2027C76.8322 37.9575 77.9648 36.4284 77.7208 34.7872L77.4379 34.8295C77.6586 36.3143 76.6339 37.6979 75.1491 37.9197L75.1912 38.2027ZM64.0477 39.8673L75.1912 38.2027L75.1491 37.9197L64.0056 39.5843L64.0477 39.8673ZM61.7773 38.1818C62.7901 38.0305 63.734 38.7309 63.8852 39.747L64.1682 39.7047C63.9939 38.5329 62.9049 37.724 61.7353 37.8988L61.7773 38.1818ZM60.2162 40.2951C60.0653 39.2789 60.7646 38.3331 61.7773 38.1818L61.7353 37.8988C60.5656 38.0735 59.7592 39.1655 59.9332 40.3373L60.2162 40.2951ZM8.44508 48.1734L60.0957 40.4577L60.0537 40.1747L8.40301 47.8904L8.44508 48.1734ZM5.03209 45.6456C5.27602 47.2868 6.80407 48.4185 8.44508 48.1734L8.40301 47.8904C6.91829 48.1122 5.53578 47.0882 5.31508 45.6033L5.03209 45.6456ZM4.10478 39.4065L5.03209 45.6456L5.31508 45.6033L4.38776 39.3642L4.10478 39.4065ZM9.45162 28.7862C10.1018 33.1605 7.86637 37.2985 4.17919 39.2591L4.31335 39.5117C8.1045 37.4959 10.4031 33.2415 9.7346 28.7439L9.45162 28.7862ZM1.3627 20.3093C5.45983 21.107 8.80147 24.4119 9.45162 28.7862L9.7346 28.7439C9.06614 24.2464 5.63023 20.8486 1.41756 20.0285L1.3627 20.3093ZM0.279151 13.6672L1.24864 20.19L1.53162 20.1478L0.562133 13.6249L0.279151 13.6672ZM2.80879 10.2517C1.16778 10.4968 0.0352214 12.026 0.279151 13.6672L0.562133 13.6249C0.341435 12.14 1.36613 10.7565 2.85085 10.5347L2.80879 10.2517ZM54.4589 2.53606L2.80879 10.2517L2.85085 10.5347L54.501 2.81907L54.4589 2.53606ZM54.6215 2.65662L54.6215 2.65643L54.3385 2.6987L54.3385 2.6989L54.6215 2.65662ZM56.7294 4.22206C55.7165 4.37336 54.7725 3.67286 54.6215 2.65662L54.3385 2.6989C54.5127 3.87079 55.6017 4.67982 56.7715 4.50507L56.7294 4.22206ZM56.9405 5.637C57.175 5.60198 57.3933 5.76366 57.4281 5.99811L57.7111 5.95584C57.653 5.56508 57.2892 5.29562 56.8985 5.35399L56.9405 5.637ZM56.5792 6.12493C56.5443 5.89048 56.7061 5.67202 56.9405 5.637L56.8985 5.35399C56.5078 5.41236 56.2381 5.77645 56.2962 6.1672L56.5792 6.12493ZM56.7414 7.21649L56.5792 6.12493L56.2962 6.1672L56.4584 7.25877L56.7414 7.21649ZM57.229 7.5776C56.9945 7.61262 56.7763 7.45095 56.7414 7.21649L56.4584 7.25877C56.5165 7.64953 56.8803 7.91898 57.271 7.86062L57.229 7.5776ZM57.5904 7.08968C57.6252 7.32413 57.4634 7.54259 57.229 7.5776L57.271 7.86062C57.6618 7.80225 57.9314 7.43816 57.8733 7.0474L57.5904 7.08968ZM57.4281 5.99811L57.5904 7.08968L57.8733 7.0474L57.7111 5.95584L57.4281 5.99811ZM57.4273 8.91169C57.6617 8.87667 57.88 9.03835 57.9148 9.2728L58.1978 9.23053C58.1397 8.83977 57.7759 8.57031 57.3852 8.62868L57.4273 8.91169ZM57.0659 9.39962C57.031 9.16516 57.1928 8.94671 57.4273 8.91169L57.3852 8.62868C56.9945 8.68704 56.7248 9.05113 56.7829 9.44189L57.0659 9.39962ZM57.3904 11.5827L57.0659 9.39962L56.7829 9.44189L57.1074 11.625L57.3904 11.5827ZM57.8779 11.9439C57.6435 11.9789 57.4252 11.8172 57.3904 11.5827L57.1074 11.625C57.1655 12.0158 57.5293 12.2852 57.92 12.2269L57.8779 11.9439ZM58.2393 11.4559C58.2742 11.6904 58.1124 11.9088 57.8779 11.9439L57.92 12.2269C58.3107 12.1685 58.5804 11.8044 58.5223 11.4137L58.2393 11.4559ZM57.9148 9.2728L58.2393 11.4559L58.5223 11.4137L58.1978 9.23053L57.9148 9.2728ZM58.0762 13.2779C58.3106 13.2429 58.5289 13.4046 58.5638 13.6391L58.8468 13.5968C58.7887 13.206 58.4249 12.9366 58.0342 12.9949L58.0762 13.2779ZM57.7148 13.7659C57.68 13.5314 57.8418 13.313 58.0762 13.2779L58.0342 12.9949C57.6434 13.0533 57.3738 13.4174 57.4319 13.8081L57.7148 13.7659ZM58.0393 15.949L57.7148 13.7659L57.4319 13.8081L57.7563 15.9913L58.0393 15.949ZM58.5269 16.3101C58.2925 16.3451 58.0742 16.1834 58.0393 15.949L57.7563 15.9913C57.8144 16.382 58.1782 16.6515 58.569 16.5931L58.5269 16.3101ZM58.8883 15.8222C58.9231 16.0566 58.7613 16.2751 58.5269 16.3101L58.569 16.5931C58.9597 16.5348 59.2293 16.1707 59.1712 15.7799L58.8883 15.8222ZM58.5638 13.6391L58.8883 15.8222L59.1712 15.7799L58.8468 13.5968L58.5638 13.6391ZM58.7252 17.6442C58.9596 17.6092 59.1779 17.7708 59.2127 18.0053L59.4957 17.963C59.4376 17.5723 59.0738 17.3028 58.6831 17.3612L58.7252 17.6442ZM58.3638 18.1321C58.329 17.8977 58.4907 17.6792 58.7252 17.6442L58.6831 17.3612C58.2924 17.4195 58.0227 17.7836 58.0808 18.1744L58.3638 18.1321ZM58.6883 20.3152L58.3638 18.1321L58.0808 18.1744L58.4053 20.3575L58.6883 20.3152ZM59.1758 20.6764C58.9414 20.7114 58.7231 20.5497 58.6883 20.3152L58.4053 20.3575C58.4634 20.7483 58.8272 21.0177 59.2179 20.9594L59.1758 20.6764ZM59.5372 20.1884C59.5721 20.4229 59.4103 20.6413 59.1758 20.6764L59.2179 20.9594C59.6086 20.901 59.8783 20.5369 59.8202 20.1462L59.5372 20.1884ZM59.2127 18.0053L59.5372 20.1884L59.8202 20.1462L59.4957 17.963L59.2127 18.0053ZM59.3741 22.0104C59.6086 21.9754 59.8268 22.1371 59.8617 22.3716L60.1447 22.3293C60.0866 21.9385 59.7228 21.6691 59.3321 21.7274L59.3741 22.0104ZM59.0127 22.4984C58.9779 22.2639 59.1397 22.0455 59.3741 22.0104L59.3321 21.7274C58.9413 21.7858 58.6717 22.1499 58.7298 22.5406L59.0127 22.4984ZM59.3372 24.6815L59.0127 22.4984L58.7298 22.5406L59.0542 24.7238L59.3372 24.6815ZM59.8248 25.0426C59.5904 25.0776 59.3721 24.9159 59.3372 24.6815L59.0542 24.7238C59.1123 25.1145 59.4761 25.384 59.8669 25.3256L59.8248 25.0426ZM60.1862 24.5547C60.221 24.7891 60.0592 25.0076 59.8248 25.0426L59.8669 25.3256C60.2576 25.2672 60.5272 24.9032 60.4692 24.5124L60.1862 24.5547ZM59.8617 22.3716L60.1862 24.5547L60.4692 24.5124L60.1447 22.3293L59.8617 22.3716ZM60.0231 26.3767C60.2575 26.3417 60.4758 26.5033 60.5106 26.7378L60.7936 26.6955C60.7356 26.3048 60.3717 26.0353 59.981 26.0937L60.0231 26.3767ZM59.6617 26.8646C59.6269 26.6302 59.7886 26.4117 60.0231 26.3767L59.981 26.0937C59.5903 26.152 59.3206 26.5161 59.3787 26.9069L59.6617 26.8646ZM59.9862 29.0477L59.6617 26.8646L59.3787 26.9069L59.7032 29.09L59.9862 29.0477ZM60.4738 29.4089C60.2393 29.4439 60.021 29.2822 59.9862 29.0477L59.7032 29.09C59.7613 29.4808 60.1251 29.7502 60.5158 29.6919L60.4738 29.4089ZM60.8351 28.9209C60.87 29.1554 60.7082 29.3738 60.4738 29.4089L60.5158 29.6919C60.9065 29.6335 61.1762 29.2694 61.1181 28.8786L60.8351 28.9209ZM60.5106 26.7378L60.8351 28.9209L61.1181 28.8786L60.7936 26.6955L60.5106 26.7378ZM60.672 30.7429C60.9065 30.7079 61.1248 30.8696 61.1596 31.104L61.4426 31.0618C61.3845 30.671 61.0207 30.4016 60.63 30.4599L60.672 30.7429ZM60.3107 31.2309C60.2758 30.9964 60.4376 30.778 60.672 30.7429L60.63 30.4599C60.2393 30.5183 59.9696 30.8824 60.0277 31.2731L60.3107 31.2309ZM60.6351 33.414L60.3107 31.2309L60.0277 31.2731L60.3521 33.4563L60.6351 33.414ZM61.1227 33.7751C60.8883 33.8101 60.67 33.6484 60.6351 33.414L60.3521 33.4563C60.4102 33.847 60.7741 34.1165 61.1648 34.0581L61.1227 33.7751ZM61.4841 33.2872C61.5189 33.5216 61.3571 33.7401 61.1227 33.7751L61.1648 34.0581C61.5555 33.9997 61.8251 33.6357 61.7671 33.2449L61.4841 33.2872ZM61.1596 31.104L61.4841 33.2872L61.7671 33.2449L61.4426 31.0618L61.1596 31.104ZM61.321 35.1092C61.5554 35.0742 61.7737 35.2358 61.8086 35.4703L62.0915 35.428C62.0335 35.0373 61.6696 34.7678 61.2789 34.8262L61.321 35.1092ZM60.9596 35.5971C60.9248 35.3627 61.0866 35.1442 61.321 35.1092L61.2789 34.8262C60.8882 34.8845 60.6185 35.2486 60.6766 35.6394L60.9596 35.5971ZM61.1218 36.6887L60.9596 35.5971L60.6766 35.6394L60.8389 36.7309L61.1218 36.6887ZM61.6094 37.0498C61.375 37.0848 61.1567 36.9231 61.1218 36.6887L60.8389 36.7309C60.8969 37.1217 61.2608 37.3912 61.6515 37.3328L61.6094 37.0498ZM61.9708 36.5619C62.0056 36.7963 61.8438 37.0148 61.6094 37.0498L61.6515 37.3328C62.0422 37.2744 62.3119 36.9103 62.2538 36.5196L61.9708 36.5619ZM61.8086 35.4703L61.9708 36.5619L62.2538 36.5196L62.0915 35.428L61.8086 35.4703Z" fill="black"/>
</g>
<path d="M20.542 30.3006L20.7641 25.7541L19.023 26.0141L19.0804 24.9567L23.8217 24.2484L23.7643 25.3059L22.031 25.5648L21.8012 30.1125L20.542 30.3006ZM24.2198 29.7512L24.4992 24.1472L25.7661 23.958L25.4867 29.5619L24.2198 29.7512ZM29.6443 29.0362C29.0899 29.119 28.5959 29.0922 28.1625 28.9556C27.7334 28.8131 27.3839 28.5819 27.1139 28.262C26.8431 27.937 26.6731 27.5412 26.6038 27.0748C26.5352 26.6136 26.5516 26.1715 26.6529 25.7484C26.7594 25.3246 26.9388 24.9456 27.191 24.6112C27.4477 24.2709 27.7683 23.9873 28.153 23.7603C28.5429 23.5326 28.9918 23.3808 29.4996 23.3049C29.9867 23.2321 30.4291 23.2508 30.8268 23.3609C31.2245 23.471 31.5424 23.6672 31.7803 23.9495L30.9818 24.8316C30.8111 24.6452 30.6088 24.5139 30.375 24.4375C30.1412 24.3612 29.8741 24.3455 29.5735 24.3904C29.2678 24.4361 28.9987 24.5319 28.7661 24.6779C28.5328 24.8187 28.3401 25.0011 28.188 25.2251C28.0403 25.4432 27.9391 25.6887 27.8843 25.9618C27.8296 26.2348 27.8238 26.5165 27.8669 26.8067C27.9077 27.0813 28.0031 27.3134 28.1531 27.5029C28.3023 27.6872 28.4994 27.8193 28.7444 27.8993C28.9893 27.9792 29.2724 27.9952 29.5937 27.9472C29.8735 27.9054 30.1278 27.8171 30.3568 27.6822C30.5849 27.5422 30.7812 27.3487 30.9458 27.1016L31.8052 27.7519C31.5695 28.1262 31.2659 28.4179 30.8944 28.627C30.5274 28.8301 30.1107 28.9665 29.6443 29.0362ZM33.6847 27.0659L33.6385 25.579L36.3253 22.3806L37.8487 22.153L35.3562 25.1078L34.6296 25.9395L33.6847 27.0659ZM32.4705 28.5187L32.7499 22.9147L34.0013 22.7278L33.7219 28.3317L32.4705 28.5187ZM36.2713 27.9509L34.3644 25.8122L35.1323 24.8314L37.6859 27.7396L36.2713 27.9509ZM39.5521 24.1394L42.1715 23.7481L42.1227 24.7566L39.5034 25.1478L39.5521 24.1394ZM39.5273 26.4315L42.4964 25.988L42.4368 27.0299L38.224 27.6592L38.5035 22.0552L42.6151 21.441L42.5555 22.4829L39.703 22.909L39.5273 26.4315ZM44.5657 26.7119L44.7877 22.1653L43.0467 22.4254L43.104 21.368L47.8453 20.6597L47.7879 21.7172L46.0547 21.9761L45.8248 26.5238L44.5657 26.7119Z" fill="black"/>
<path d="M20.542 30.3006L20.0515 30.2769L20.0223 30.8748L20.6143 30.7864L20.542 30.3006ZM20.7641 25.7541L21.2546 25.7777L21.2838 25.1798L20.6919 25.2682L20.7641 25.7541ZM19.023 26.0141L18.5326 25.9879L18.5 26.5889L19.0953 26.5L19.023 26.0141ZM19.0804 24.9567L19.0082 24.4709L18.6117 24.5301L18.59 24.9304L19.0804 24.9567ZM23.8217 24.2484L24.3121 24.2747L24.3447 23.6737L23.7495 23.7626L23.8217 24.2484ZM23.7643 25.3059L23.8365 25.7917L24.233 25.7325L24.2547 25.3321L23.7643 25.3059ZM22.031 25.5648L21.9588 25.079L21.5608 25.1384L21.5405 25.5403L22.031 25.5648ZM21.8012 30.1125L21.8734 30.5983L22.2714 30.5389L22.2917 30.1369L21.8012 30.1125ZM21.0326 30.3242L21.2546 25.7777L20.2736 25.7304L20.0515 30.2769L21.0326 30.3242ZM20.6919 25.2682L18.9508 25.5283L19.0953 26.5L20.8363 26.2399L20.6919 25.2682ZM19.5135 26.0404L19.5708 24.983L18.59 24.9304L18.5326 25.9879L19.5135 26.0404ZM19.1526 25.4425L23.8939 24.7343L23.7495 23.7626L19.0082 24.4709L19.1526 25.4425ZM23.3313 24.2222L23.2739 25.2796L24.2547 25.3321L24.3121 24.2747L23.3313 24.2222ZM23.6921 24.82L21.9588 25.079L22.1032 26.0506L23.8365 25.7917L23.6921 24.82ZM21.5405 25.5403L21.3107 30.088L22.2917 30.1369L22.5215 25.5893L21.5405 25.5403ZM21.729 29.6266L20.4698 29.8147L20.6143 30.7864L21.8734 30.5983L21.729 29.6266ZM24.2198 29.7512L23.7292 29.7271L23.6994 30.3255L24.292 30.237L24.2198 29.7512ZM24.4992 24.1472L24.4269 23.6614L24.0287 23.7209L24.0086 24.1231L24.4992 24.1472ZM25.7661 23.958L26.2566 23.9821L26.2864 23.3836L25.6939 23.4721L25.7661 23.958ZM25.4867 29.5619L25.5589 30.0478L25.9571 29.9883L25.9772 29.586L25.4867 29.5619ZM24.7103 29.7753L24.9897 24.1714L24.0086 24.1231L23.7292 29.7271L24.7103 29.7753ZM24.5714 24.6331L25.8383 24.4438L25.6939 23.4721L24.4269 23.6614L24.5714 24.6331ZM25.2756 23.9339L24.9962 29.5378L25.9772 29.586L26.2566 23.9821L25.2756 23.9339ZM25.4145 29.0761L24.1475 29.2653L24.292 30.237L25.5589 30.0478L25.4145 29.0761ZM28.1625 28.9556L28.0074 29.4219L28.0146 29.4242L28.1625 28.9556ZM27.1139 28.262L26.7365 28.5766L26.7386 28.5791L27.1139 28.262ZM26.6529 25.7484L26.1766 25.629L26.1753 25.6343L26.6529 25.7484ZM27.191 24.6112L27.583 24.9069L27.583 24.9069L27.191 24.6112ZM28.153 23.7603L27.9056 23.3362L27.9037 23.3373L28.153 23.7603ZM30.8268 23.3609L30.6955 23.8344L30.8268 23.3609ZM31.7803 23.9495L32.1443 24.2791L32.4324 23.9608L32.1559 23.6327L31.7803 23.9495ZM30.9818 24.8316L30.6196 25.1636L30.9837 25.5611L31.3458 25.1612L30.9818 24.8316ZM30.375 24.4375L30.5277 23.9705L30.5277 23.9705L30.375 24.4375ZM28.7661 24.6779L29.0197 25.0985L29.027 25.0939L28.7661 24.6779ZM28.188 25.2251L27.7818 24.9493L27.7814 24.9498L28.188 25.2251ZM28.1531 27.5029L27.768 27.808L27.7714 27.8122L28.1531 27.5029ZM30.3568 27.6822L30.6058 28.1055L30.6134 28.1009L30.3568 27.6822ZM30.9458 27.1016L31.2423 26.7098L30.8264 26.3951L30.5371 26.8295L30.9458 27.1016ZM31.8052 27.7519L32.2207 28.0136L32.461 27.632L32.1017 27.3601L31.8052 27.7519ZM30.8944 28.627L31.132 29.0568L31.1351 29.055L30.8944 28.627ZM29.5721 28.5504C29.0745 28.6247 28.6581 28.5966 28.3103 28.4871L28.0146 29.4242C28.5338 29.5877 29.1052 29.6134 29.7165 29.522L29.5721 28.5504ZM28.3175 28.4894C27.9672 28.373 27.6963 28.1903 27.4893 27.945L26.7386 28.5791C27.0715 28.9735 27.4997 29.2532 28.0074 29.4218L28.3175 28.4894ZM27.4913 27.9474C27.2846 27.6993 27.1472 27.39 27.0895 27.0022L26.118 27.1474C26.199 27.6924 26.4017 28.1747 26.7365 28.5766L27.4913 27.9474ZM27.0895 27.0022C27.0296 26.5987 27.0449 26.2201 27.1305 25.8626L26.1753 25.6343C26.0583 26.1228 26.0409 26.6285 26.118 27.1474L27.0895 27.0022ZM27.1292 25.8679C27.2204 25.505 27.3721 25.1865 27.583 24.9069L26.7991 24.3155C26.5055 24.7047 26.2984 25.1442 26.1766 25.629L27.1292 25.8679ZM27.583 24.9069C27.799 24.6205 28.0704 24.3793 28.4023 24.1834L27.9037 23.3373C27.4663 23.5954 27.0963 23.9214 26.799 24.3156L27.583 24.9069ZM28.4005 24.1845C28.7295 23.9923 29.1174 23.8586 29.5718 23.7907L29.4274 22.8191C28.8662 22.9029 28.3563 23.0729 27.9056 23.3362L28.4005 24.1845ZM29.5718 23.7907C30.0038 23.7262 30.3755 23.7458 30.6955 23.8344L30.9581 22.8875C30.4826 22.7559 29.9695 22.7381 29.4274 22.8191L29.5718 23.7907ZM30.6955 23.8344C31.0095 23.9213 31.2379 24.0684 31.4047 24.2663L32.1559 23.6327C31.8468 23.266 31.4395 23.0207 30.9581 22.8875L30.6955 23.8344ZM31.4163 23.62L30.6179 24.502L31.3458 25.1612L32.1443 24.2791L31.4163 23.62ZM31.3441 24.4996C31.1179 24.2527 30.8441 24.0738 30.5277 23.9705L30.2224 24.9045C30.3736 24.9539 30.5043 25.0377 30.6196 25.1636L31.3441 24.4996ZM30.5277 23.9705C30.2064 23.8657 29.8599 23.851 29.5013 23.9046L29.6457 24.8762C29.8882 24.84 30.0761 24.8568 30.2224 24.9045L30.5277 23.9705ZM29.5013 23.9046C29.137 23.959 28.802 24.0756 28.5052 24.2619L29.027 25.0939C29.1953 24.9882 29.3986 24.9132 29.6457 24.8762L29.5013 23.9046ZM28.5126 24.2573C28.2189 24.4346 27.974 24.6662 27.7818 24.9493L28.5942 25.5009C28.7062 25.336 28.8466 25.2028 29.0196 25.0984L28.5126 24.2573ZM27.7814 24.9498C27.595 25.2251 27.4697 25.5321 27.4028 25.8655L28.3659 26.0581C28.4085 25.8453 28.4856 25.6613 28.5946 25.5004L27.7814 24.9498ZM27.4028 25.8655C27.3363 26.1971 27.3301 26.536 27.3811 26.8792L28.3527 26.7341C28.3174 26.4969 28.3229 26.2725 28.3659 26.0581L27.4028 25.8655ZM27.3811 26.8792C27.4327 27.2261 27.5572 27.5417 27.768 27.808L28.5383 27.1978C28.4491 27.0851 28.3828 26.9366 28.3527 26.7341L27.3811 26.8792ZM27.7714 27.8122C27.9853 28.0764 28.2649 28.2596 28.5917 28.3663L28.897 27.4323C28.734 27.379 28.6194 27.298 28.5349 27.1936L27.7714 27.8122ZM28.5917 28.3663C28.9255 28.4752 29.2883 28.4895 29.6659 28.4331L29.5215 27.4614C29.2565 27.501 29.0531 27.4832 28.897 27.4323L28.5917 28.3663ZM29.6659 28.4331C30.004 28.3825 30.319 28.2744 30.6058 28.1055L30.1077 27.259C29.9367 27.3598 29.743 27.4283 29.5215 27.4614L29.6659 28.4331ZM30.6134 28.1009C30.9085 27.9197 31.1548 27.6736 31.3545 27.3737L30.5371 26.8295C30.4077 27.0238 30.2612 27.1647 30.1001 27.2636L30.6134 28.1009ZM30.6493 27.4934L31.5087 28.1438L32.1017 27.3601L31.2423 26.7098L30.6493 27.4934ZM31.3897 27.4903C31.1958 27.7981 30.9513 28.0314 30.6538 28.1989L31.1351 29.055C31.5805 28.8043 31.9431 28.4543 32.2207 28.0136L31.3897 27.4903ZM30.6569 28.1972C30.3471 28.3686 29.9876 28.4883 29.5721 28.5504L29.7165 29.522C30.2337 29.4448 30.7076 29.2916 31.132 29.0567L30.6569 28.1972ZM33.6847 27.0659L33.1938 27.0815L33.2338 28.3675L34.0609 27.3815L33.6847 27.0659ZM33.6385 25.579L33.2626 25.2631L33.1418 25.4069L33.1476 25.5946L33.6385 25.579ZM36.3253 22.3806L36.2531 21.8948L36.0691 21.9223L35.9494 22.0648L36.3253 22.3806ZM37.8487 22.153L38.224 22.4697L39.0631 21.475L37.7765 21.6672L37.8487 22.153ZM35.3562 25.1078L35.7259 25.431L35.7314 25.4245L35.3562 25.1078ZM34.6296 25.9395L34.2598 25.6163L34.2535 25.6239L34.6296 25.9395ZM32.4705 28.5187L31.98 28.4945L31.9502 29.093L32.5427 29.0045L32.4705 28.5187ZM32.7499 22.9147L32.6777 22.4289L32.2795 22.4884L32.2594 22.8906L32.7499 22.9147ZM34.0013 22.7278L34.4918 22.7519L34.5217 22.1534L33.9291 22.2419L34.0013 22.7278ZM33.7219 28.3317L33.7941 28.8176L34.1924 28.7581L34.2124 28.3558L33.7219 28.3317ZM36.2713 27.9509L35.9047 28.278L36.0812 28.4759L36.3435 28.4367L36.2713 27.9509ZM34.3644 25.8122L33.9778 25.5095L33.7246 25.8329L33.9978 26.1393L34.3644 25.8122ZM35.1323 24.8314L35.5014 24.5071L35.1109 24.0623L34.7457 24.5287L35.1323 24.8314ZM37.6859 27.7396L37.7581 28.2254L38.6495 28.0923L38.055 27.4153L37.6859 27.7396ZM34.1756 27.0503L34.1294 25.5634L33.1476 25.5946L33.1938 27.0815L34.1756 27.0503ZM34.0144 25.8948L36.7012 22.6965L35.9494 22.0648L33.2626 25.2631L34.0144 25.8948ZM36.3975 22.8664L37.9209 22.6389L37.7765 21.6672L36.2531 21.8948L36.3975 22.8664ZM37.4735 21.8364L34.9809 24.7912L35.7314 25.4245L38.224 22.4697L37.4735 21.8364ZM34.9864 24.7848L34.2599 25.6164L34.9993 26.2625L35.7259 25.4309L34.9864 24.7848ZM34.2535 25.6239L33.3086 26.7503L34.0609 27.3815L35.0058 26.255L34.2535 25.6239ZM32.961 28.5428L33.2404 22.9388L32.2594 22.8906L31.98 28.4945L32.961 28.5428ZM32.8221 23.4005L34.0735 23.2136L33.9291 22.2419L32.6777 22.4289L32.8221 23.4005ZM33.5108 22.7037L33.2314 28.3076L34.2124 28.3558L34.4918 22.7519L33.5108 22.7037ZM33.6497 27.8459L32.3983 28.0328L32.5427 29.0045L33.7941 28.8176L33.6497 27.8459ZM36.638 27.6238L34.7311 25.4851L33.9978 26.1393L35.9047 28.278L36.638 27.6238ZM34.751 26.1149L35.5189 25.1341L34.7457 24.5287L33.9778 25.5095L34.751 26.1149ZM34.7632 25.1557L37.3168 28.0639L38.055 27.4153L35.5014 24.5071L34.7632 25.1557ZM37.6137 27.2537L36.1991 27.4651L36.3435 28.4367L37.7581 28.2254L37.6137 27.2537ZM39.5521 24.1394L39.4799 23.6535L39.081 23.7131L39.0616 24.116L39.5521 24.1394ZM42.1715 23.7481L42.662 23.7714L42.6909 23.1739L42.0993 23.2622L42.1715 23.7481ZM42.1227 24.7566L42.1949 25.2424L42.5938 25.1828L42.6133 24.7799L42.1227 24.7566ZM39.5034 25.1478L39.0128 25.1245L38.9839 25.7221L39.5756 25.6337L39.5034 25.1478ZM39.5273 26.4315L39.0368 26.4074L39.007 27.0059L39.5995 26.9174L39.5273 26.4315ZM42.4964 25.988L42.9868 26.0157L43.0213 25.413L42.4242 25.5021L42.4964 25.988ZM42.4368 27.0299L42.509 27.5157L42.9043 27.4567L42.9271 27.0576L42.4368 27.0299ZM38.224 27.6592L37.7335 27.6351L37.7037 28.2335L38.2963 28.145L38.224 27.6592ZM38.5035 22.0552L38.4312 21.5694L38.033 21.6289L38.0129 22.0311L38.5035 22.0552ZM42.6151 21.441L43.1055 21.4688L43.14 20.866L42.5429 20.9552L42.6151 21.441ZM42.5555 22.4829L42.6277 22.9688L43.023 22.9097L43.0458 22.5107L42.5555 22.4829ZM39.703 22.909L39.6307 22.4232L39.2325 22.4827L39.2124 22.8849L39.703 22.909ZM39.6243 24.6252L42.2437 24.2339L42.0993 23.2622L39.4799 23.6535L39.6243 24.6252ZM41.6809 23.7247L41.6322 24.7332L42.6133 24.7799L42.662 23.7714L41.6809 23.7247ZM42.0505 24.2707L39.4312 24.662L39.5756 25.6337L42.1949 25.2424L42.0505 24.2707ZM39.9939 25.1712L40.0427 24.1627L39.0616 24.116L39.0128 25.1245L39.9939 25.1712ZM39.5995 26.9174L42.5687 26.4738L42.4242 25.5021L39.4551 25.9457L39.5995 26.9174ZM42.0061 25.9602L41.9465 27.0021L42.9271 27.0576L42.9868 26.0157L42.0061 25.9602ZM42.3646 26.544L38.1518 27.1733L38.2963 28.145L42.509 27.5157L42.3646 26.544ZM38.7146 27.6833L38.994 22.0794L38.0129 22.0311L37.7335 27.6351L38.7146 27.6833ZM38.5757 22.5411L42.6874 21.9269L42.5429 20.9552L38.4312 21.5694L38.5757 22.5411ZM42.1248 21.4133L42.0652 22.4552L43.0458 22.5107L43.1055 21.4688L42.1248 21.4133ZM42.4833 21.9971L39.6307 22.4232L39.7752 23.3949L42.6277 22.9688L42.4833 21.9971ZM39.2124 22.8849L39.0368 26.4074L40.0178 26.4556L40.1935 22.9332L39.2124 22.8849ZM44.5657 26.7119L44.0751 26.6882L44.0459 27.2861L44.6379 27.1977L44.5657 26.7119ZM44.7877 22.1653L45.2783 22.189L45.3075 21.5911L44.7155 21.6795L44.7877 22.1653ZM43.0467 22.4254L42.5563 22.3992L42.5237 23.0002L43.1189 22.9113L43.0467 22.4254ZM43.104 21.368L43.0318 20.8821L42.6353 20.9414L42.6136 21.3417L43.104 21.368ZM47.8453 20.6597L48.3357 20.686L48.3683 20.085L47.7731 20.1739L47.8453 20.6597ZM47.788 21.7172L47.8602 22.203L48.2566 22.1438L48.2784 21.7434L47.788 21.7172ZM46.0547 21.9761L45.9825 21.4903L45.5845 21.5497L45.5642 21.9516L46.0547 21.9761ZM45.8248 26.5238L45.897 27.0096L46.295 26.9502L46.3153 26.5482L45.8248 26.5238ZM45.0562 26.7355L45.2783 22.189L44.2972 22.1417L44.0751 26.6882L45.0562 26.7355ZM44.7155 21.6795L42.9745 21.9396L43.1189 22.9113L44.8599 22.6512L44.7155 21.6795ZM43.5371 22.4517L43.5944 21.3943L42.6136 21.3417L42.5563 22.3992L43.5371 22.4517ZM43.1762 21.8538L47.9175 21.1456L47.7731 20.1739L43.0318 20.8821L43.1762 21.8538ZM47.3549 20.6335L47.2975 21.6909L48.2784 21.7434L48.3357 20.686L47.3549 20.6335ZM47.7157 21.2313L45.9825 21.4903L46.1269 22.4619L47.8602 22.203L47.7157 21.2313ZM45.5642 21.9516L45.3343 26.4993L46.3153 26.5482L46.5452 22.0005L45.5642 21.9516ZM45.7526 26.0379L44.4935 26.226L44.6379 27.1977L45.897 27.0096L45.7526 26.0379Z" fill="black"/>
<path fill-rule="evenodd" clip-rule="evenodd" d="M57.0811 12.8758C58.1845 12.8758 59.0789 11.9791 59.0789 10.873V10.8726H70.3449C71.9251 10.8726 73.2061 12.1536 73.2061 13.7338V20.6116C69.5924 22.2075 67.0696 25.8297 67.0696 30.0426C67.0696 34.2555 69.5924 37.8776 73.2061 39.4735V46.0656C73.2061 47.6458 71.9251 48.9268 70.3449 48.9268H59.0789C59.0787 47.8208 58.1844 46.9243 57.0811 46.9243C55.9779 46.9243 55.0835 47.8208 55.0833 48.9268H2.8622C1.28199 48.9268 0.000976562 47.6458 0.000976562 46.0656V39.7571C3.99153 38.3431 6.85058 34.5276 6.85058 30.0428C6.85058 25.5579 3.99153 21.7425 0.000976562 20.3285V13.7338C0.000976562 12.1536 1.28199 10.8726 2.8622 10.8726H55.0833V10.873C55.0833 11.9791 55.9778 12.8758 57.0811 12.8758ZM57.653 14.5918C57.653 14.2758 57.3968 14.0196 57.0807 14.0196C56.7647 14.0196 56.5085 14.2758 56.5085 14.5918V15.6954C56.5085 16.0115 56.7647 16.2677 57.0807 16.2677C57.3968 16.2677 57.653 16.0115 57.653 15.6954V14.5918ZM57.653 17.9026C57.653 17.5866 57.3968 17.3304 57.0807 17.3304C56.7647 17.3304 56.5085 17.5866 56.5085 17.9026V20.1099C56.5085 20.4259 56.7647 20.6821 57.0807 20.6821C57.3968 20.6821 57.653 20.4259 57.653 20.1099V17.9026ZM57.653 22.3171C57.653 22.0011 57.3968 21.7448 57.0807 21.7448C56.7647 21.7448 56.5085 22.001 56.5085 22.3171V24.5243C56.5085 24.8404 56.7647 25.0966 57.0807 25.0966C57.3968 25.0966 57.653 24.8404 57.653 24.5243V22.3171ZM57.653 26.7315C57.653 26.4155 57.3968 26.1593 57.0807 26.1593C56.7647 26.1593 56.5085 26.4155 56.5085 26.7315L56.5085 28.9388C56.5085 29.2548 56.7647 29.511 57.0807 29.511C57.3968 29.511 57.653 29.2548 57.653 28.9388V26.7315ZM57.653 31.146C57.653 30.83 57.3968 30.5738 57.0807 30.5738C56.7647 30.5738 56.5085 30.83 56.5085 31.146V33.3532C56.5085 33.6693 56.7647 33.9255 57.0807 33.9255C57.3968 33.9255 57.653 33.6693 57.653 33.3532V31.146ZM57.653 35.5605C57.653 35.2444 57.3968 34.9882 57.0807 34.9882C56.7647 34.9882 56.5085 35.2444 56.5085 35.5605V37.7677C56.5085 38.0837 56.7647 38.3399 57.0807 38.3399C57.3968 38.3399 57.653 38.0837 57.653 37.7677V35.5605ZM57.653 39.9749C57.653 39.6589 57.3968 39.4027 57.0807 39.4027C56.7647 39.4027 56.5085 39.6589 56.5085 39.9749V42.1821C56.5085 42.4982 56.7647 42.7544 57.0807 42.7544C57.3968 42.7544 57.653 42.4982 57.653 42.1821V39.9749ZM57.653 44.3894C57.653 44.0733 57.3968 43.8171 57.0807 43.8171C56.7647 43.8171 56.5085 44.0733 56.5085 44.3894V45.493C56.5085 45.809 56.7647 46.0652 57.0807 46.0652C57.3968 46.0652 57.653 45.809 57.653 45.493V44.3894Z" fill="#360146"/>
<path d="M59.0789 10.8726V10.7295H58.9359V10.8726H59.0789ZM73.2061 20.6116L73.2639 20.7425L73.3492 20.7049V20.6116H73.2061ZM73.2061 39.4735H73.3492V39.3803L73.2639 39.3427L73.2061 39.4735ZM59.0789 48.9268L58.9359 48.9268L58.9359 49.0699H59.0789V48.9268ZM55.0833 48.9268V49.0699H55.2264L55.2264 48.9268L55.0833 48.9268ZM0.000976562 39.7571L-0.0468051 39.6222L-0.142084 39.656V39.7571H0.000976562ZM0.000976562 20.3285H-0.142084V20.4296L-0.0468051 20.4634L0.000976562 20.3285ZM55.0833 10.8726H55.2264V10.7295H55.0833V10.8726ZM57.0807 14.0196V13.8765V14.0196ZM57.0807 17.3304V17.4735V17.3304ZM57.0807 20.6821V20.8252V20.6821ZM56.5085 26.7315H56.6515H56.5085ZM56.5085 28.9388H56.3654H56.5085ZM57.0807 29.511V29.368V29.511ZM58.9359 10.873C58.9359 11.9004 58.1051 12.7328 57.0811 12.7328V13.0189C58.2638 13.0189 59.222 12.0578 59.222 10.873H58.9359ZM58.9359 10.8726V10.873H59.222V10.8726H58.9359ZM70.3449 10.7295H59.0789V11.0156H70.3449V10.7295ZM73.3492 13.7338C73.3492 12.0746 72.0041 10.7295 70.3449 10.7295V11.0156C71.8461 11.0156 73.0631 12.2326 73.0631 13.7338H73.3492ZM73.3492 20.6116V13.7338H73.0631V20.6116H73.3492ZM67.2127 30.0426C67.2127 25.8882 69.7003 22.3163 73.2639 20.7425L73.1483 20.4808C69.4845 22.0988 66.9266 25.7712 66.9266 30.0426H67.2127ZM73.2639 39.3427C69.7003 37.7689 67.2127 34.197 67.2127 30.0426H66.9266C66.9266 34.314 69.4845 37.9864 73.1483 39.6044L73.2639 39.3427ZM73.3492 46.0656V39.4735H73.0631V46.0656H73.3492ZM70.3449 49.0699C72.0041 49.0699 73.3492 47.7248 73.3492 46.0656H73.0631C73.0631 47.5668 71.8461 48.7837 70.3449 48.7837V49.0699ZM59.0789 49.0699H70.3449V48.7837H59.0789V49.0699ZM57.0811 47.0674C58.105 47.0674 58.9357 47.8995 58.9359 48.9268L59.222 48.9268C59.2218 47.7421 58.2637 46.7813 57.0811 46.7813V47.0674ZM55.2264 48.9268C55.2266 47.8995 56.0572 47.0674 57.0811 47.0674V46.7813C55.8986 46.7813 54.9405 47.7421 54.9403 48.9268L55.2264 48.9268ZM2.8622 49.0699H55.0833V48.7837H2.8622V49.0699ZM-0.142084 46.0656C-0.142084 47.7248 1.20298 49.0699 2.8622 49.0699V48.7837C1.361 48.7837 0.144038 47.5668 0.144038 46.0656H-0.142084ZM-0.142084 39.7571V46.0656H0.144038V39.7571H-0.142084ZM6.70752 30.0428C6.70752 34.4654 3.88825 38.2279 -0.0468051 39.6222L0.0487583 39.8919C4.09481 38.4582 6.99364 34.5899 6.99364 30.0428H6.70752ZM-0.0468051 20.4634C3.88825 21.8577 6.70752 25.6202 6.70752 30.0428H6.99364C6.99364 25.4957 4.09481 21.6274 0.0487583 20.1937L-0.0468051 20.4634ZM-0.142084 13.7338V20.3285H0.144038V13.7338H-0.142084ZM2.8622 10.7295C1.20298 10.7295 -0.142084 12.0746 -0.142084 13.7338H0.144038C0.144038 12.2326 1.361 11.0156 2.8622 11.0156V10.7295ZM55.0833 10.7295H2.8622V11.0156H55.0833V10.7295ZM55.2264 10.873V10.8726H54.9403V10.873H55.2264ZM57.0811 12.7328C56.0571 12.7328 55.2264 11.9004 55.2264 10.873H54.9403C54.9403 12.0578 55.8984 13.0189 57.0811 13.0189V12.7328ZM57.0807 14.1626C57.3177 14.1626 57.5099 14.3548 57.5099 14.5918H57.796C57.796 14.1967 57.4758 13.8765 57.0807 13.8765V14.1626ZM56.6515 14.5918C56.6515 14.3548 56.8437 14.1626 57.0807 14.1626V13.8765C56.6857 13.8765 56.3654 14.1967 56.3654 14.5918H56.6515ZM56.6515 15.6954V14.5918H56.3654V15.6954H56.6515ZM57.0807 16.1246C56.8437 16.1246 56.6515 15.9324 56.6515 15.6954H56.3654C56.3654 16.0905 56.6857 16.4107 57.0807 16.4107V16.1246ZM57.5099 15.6954C57.5099 15.9324 57.3177 16.1246 57.0807 16.1246V16.4107C57.4758 16.4107 57.796 16.0905 57.796 15.6954H57.5099ZM57.5099 14.5918V15.6954H57.796V14.5918H57.5099ZM57.0807 17.4735C57.3177 17.4735 57.5099 17.6656 57.5099 17.9026H57.796C57.796 17.5076 57.4758 17.1873 57.0807 17.1873V17.4735ZM56.6515 17.9026C56.6515 17.6656 56.8437 17.4735 57.0807 17.4735V17.1873C56.6857 17.1873 56.3654 17.5076 56.3654 17.9026H56.6515ZM56.6515 20.1099V17.9026H56.3654V20.1099H56.6515ZM57.0807 20.539C56.8437 20.539 56.6515 20.3469 56.6515 20.1099H56.3654C56.3654 20.5049 56.6857 20.8252 57.0807 20.8252V20.539ZM57.5099 20.1099C57.5099 20.3469 57.3177 20.539 57.0807 20.539V20.8252C57.4758 20.8252 57.796 20.5049 57.796 20.1099H57.5099ZM57.5099 17.9026V20.1099H57.796V17.9026H57.5099ZM57.0807 21.8879C57.3177 21.8879 57.5099 22.0801 57.5099 22.3171H57.796C57.796 21.922 57.4758 21.6018 57.0807 21.6018V21.8879ZM56.6515 22.3171C56.6515 22.0801 56.8437 21.8879 57.0807 21.8879V21.6018C56.6857 21.6018 56.3654 21.922 56.3654 22.3171H56.6515ZM56.6515 24.5243V22.3171H56.3654V24.5243H56.6515ZM57.0807 24.9535C56.8437 24.9535 56.6515 24.7614 56.6515 24.5243H56.3654C56.3654 24.9194 56.6857 25.2396 57.0807 25.2396V24.9535ZM57.5099 24.5243C57.5099 24.7614 57.3177 24.9535 57.0807 24.9535V25.2396C57.4758 25.2396 57.796 24.9194 57.796 24.5243H57.5099ZM57.5099 22.3171V24.5243H57.796V22.3171H57.5099ZM57.0807 26.3024C57.3177 26.3024 57.5099 26.4945 57.5099 26.7315H57.796C57.796 26.3365 57.4758 26.0162 57.0807 26.0162V26.3024ZM56.6515 26.7315C56.6515 26.4945 56.8437 26.3024 57.0807 26.3024V26.0162C56.6857 26.0162 56.3654 26.3365 56.3654 26.7315H56.6515ZM56.6515 28.9388L56.6515 26.7315H56.3654L56.3654 28.9388H56.6515ZM57.0807 29.368C56.8437 29.368 56.6515 29.1758 56.6515 28.9388H56.3654C56.3654 29.3338 56.6857 29.6541 57.0807 29.6541V29.368ZM57.5099 28.9388C57.5099 29.1758 57.3177 29.368 57.0807 29.368V29.6541C57.4758 29.6541 57.796 29.3338 57.796 28.9388H57.5099ZM57.5099 26.7315V28.9388H57.796V26.7315H57.5099ZM57.0807 30.7168C57.3177 30.7168 57.5099 30.909 57.5099 31.146H57.796C57.796 30.7509 57.4758 30.4307 57.0807 30.4307V30.7168ZM56.6515 31.146C56.6515 30.909 56.8437 30.7168 57.0807 30.7168V30.4307C56.6857 30.4307 56.3654 30.7509 56.3654 31.146H56.6515ZM56.6515 33.3532V31.146H56.3654V33.3532H56.6515ZM57.0807 33.7824C56.8437 33.7824 56.6515 33.5903 56.6515 33.3532H56.3654C56.3654 33.7483 56.6857 34.0685 57.0807 34.0685V33.7824ZM57.5099 33.3532C57.5099 33.5903 57.3177 33.7824 57.0807 33.7824V34.0685C57.4758 34.0685 57.796 33.7483 57.796 33.3532H57.5099ZM57.5099 31.146V33.3532H57.796V31.146H57.5099ZM57.0807 35.1313C57.3177 35.1313 57.5099 35.3234 57.5099 35.5605H57.796C57.796 35.1654 57.4758 34.8452 57.0807 34.8452V35.1313ZM56.6515 35.5605C56.6515 35.3234 56.8437 35.1313 57.0807 35.1313V34.8452C56.6857 34.8452 56.3654 35.1654 56.3654 35.5605H56.6515ZM56.6515 37.7677V35.5605H56.3654V37.7677H56.6515ZM57.0807 38.1969C56.8437 38.1969 56.6515 38.0047 56.6515 37.7677H56.3654C56.3654 38.1627 56.6857 38.483 57.0807 38.483V38.1969ZM57.5099 37.7677C57.5099 38.0047 57.3177 38.1969 57.0807 38.1969V38.483C57.4758 38.483 57.796 38.1627 57.796 37.7677H57.5099ZM57.5099 35.5605V37.7677H57.796V35.5605H57.5099ZM57.0807 39.5457C57.3177 39.5457 57.5099 39.7379 57.5099 39.9749H57.796C57.796 39.5799 57.4758 39.2596 57.0807 39.2596V39.5457ZM56.6515 39.9749C56.6515 39.7379 56.8437 39.5457 57.0807 39.5457V39.2596C56.6857 39.2596 56.3654 39.5799 56.3654 39.9749H56.6515ZM56.6515 42.1821V39.9749H56.3654V42.1821H56.6515ZM57.0807 42.6113C56.8437 42.6113 56.6515 42.4192 56.6515 42.1821H56.3654C56.3654 42.5772 56.6857 42.8974 57.0807 42.8974V42.6113ZM57.5099 42.1821C57.5099 42.4192 57.3177 42.6113 57.0807 42.6113V42.8974C57.4758 42.8974 57.796 42.5772 57.796 42.1821H57.5099ZM57.5099 39.9749V42.1821H57.796V39.9749H57.5099ZM57.0807 43.9602C57.3177 43.9602 57.5099 44.1523 57.5099 44.3894H57.796C57.796 43.9943 57.4758 43.6741 57.0807 43.6741V43.9602ZM56.6515 44.3894C56.6515 44.1523 56.8437 43.9602 57.0807 43.9602V43.6741C56.6857 43.6741 56.3654 43.9943 56.3654 44.3894H56.6515ZM56.6515 45.493V44.3894H56.3654V45.493H56.6515ZM57.0807 45.9222C56.8437 45.9222 56.6515 45.73 56.6515 45.493H56.3654C56.3654 45.888 56.6857 46.2083 57.0807 46.2083V45.9222ZM57.5099 45.493C57.5099 45.73 57.3177 45.9222 57.0807 45.9222V46.2083C57.4758 46.2083 57.796 45.888 57.796 45.493H57.5099ZM57.5099 44.3894V45.493H57.796V44.3894H57.5099Z" fill="black"/>
<path d="M17.4527 33.1787L18.3408 28.7149H16.5804L16.7926 27.6775H21.5865L21.3743 28.7149H19.6218L18.7259 33.1787H17.4527ZM21.1713 33.1787L22.2715 27.6775H23.5525L22.4522 33.1787H21.1713ZM26.642 33.273C26.0814 33.273 25.5967 33.1735 25.1881 32.9744C24.7847 32.7701 24.4729 32.4898 24.2529 32.1335C24.0328 31.772 23.9228 31.3555 23.9228 30.8839C23.9228 30.4176 24.004 29.9828 24.1664 29.5794C24.3341 29.176 24.5672 28.8275 24.8659 28.5341C25.1698 28.2355 25.5286 28.0024 25.9425 27.8347C26.3617 27.6671 26.828 27.5832 27.3414 27.5832C27.8339 27.5832 28.2687 27.6671 28.646 27.8347C29.0232 28.0024 29.3087 28.2434 29.5026 28.5577L28.5831 29.3122C28.4416 29.1026 28.2609 28.9428 28.0408 28.8328C27.8208 28.7228 27.5588 28.6677 27.255 28.6677C26.9458 28.6677 26.6655 28.7228 26.4141 28.8328C26.1626 28.9376 25.9452 29.0895 25.7618 29.2886C25.5837 29.4824 25.4474 29.7104 25.3531 29.9723C25.2588 30.2343 25.2117 30.512 25.2117 30.8053C25.2117 31.083 25.2719 31.3266 25.3924 31.5362C25.5129 31.7405 25.6884 31.9003 25.919 32.0156C26.1495 32.1309 26.4272 32.1885 26.752 32.1885C27.0349 32.1885 27.2995 32.1387 27.5457 32.0392C27.792 31.9344 28.0146 31.772 28.2137 31.5519L28.9682 32.3221C28.68 32.6574 28.3369 32.901 27.9387 33.053C27.5457 33.1997 27.1135 33.273 26.642 33.273ZM30.9282 31.9213L31.1011 30.4438L34.2289 27.6775H35.7692L32.8693 30.2317L32.0284 30.9468L30.9282 31.9213ZM29.5136 33.1787L30.6138 27.6775H31.8791L30.7788 33.1787H29.5136ZM33.3565 33.1787L31.7848 30.7818L32.6885 29.9252L34.7868 33.1787H33.3565ZM37.162 29.8937H39.8105L39.614 30.8839H36.9656L37.162 29.8937ZM36.8005 32.1571H39.8026L39.5904 33.1787H35.3309L36.4312 27.6775H40.5885L40.3763 28.6992H37.4921L36.8005 32.1571ZM41.7429 33.1787L42.631 28.7149H40.8706L41.0828 27.6775H45.8767L45.6645 28.7149H43.912L43.0161 33.1787H41.7429Z" fill="#EEEEEE"/>
<path d="M17.4527 33.1787L16.971 33.0829L16.8542 33.6699H17.4527V33.1787ZM18.3408 28.7149L18.8225 28.8107L18.9393 28.2237H18.3408V28.7149ZM16.5804 28.7149L16.0992 28.6165L15.9786 29.2061H16.5804V28.7149ZM16.7926 27.6775V27.1864H16.3917L16.3114 27.5791L16.7926 27.6775ZM21.5865 27.6775L22.0677 27.776L22.1883 27.1864H21.5865V27.6775ZM21.3743 28.7149V29.2061H21.7752L21.8555 28.8133L21.3743 28.7149ZM19.6218 28.7149V28.2237H19.2194L19.1402 28.6182L19.6218 28.7149ZM18.7259 33.1787V33.6699H19.1283L19.2074 33.2754L18.7259 33.1787ZM17.9345 33.2745L18.8225 28.8107L17.8591 28.6191L16.971 33.0829L17.9345 33.2745ZM18.3408 28.2237H16.5804V29.2061H18.3408V28.2237ZM17.0616 28.8133L17.2738 27.776L16.3114 27.5791L16.0992 28.6165L17.0616 28.8133ZM16.7926 28.1687H21.5865V27.1864H16.7926V28.1687ZM21.1053 27.5791L20.8931 28.6165L21.8555 28.8133L22.0677 27.776L21.1053 27.5791ZM21.3743 28.2237H19.6218V29.2061H21.3743V28.2237ZM19.1402 28.6182L18.2443 33.0821L19.2074 33.2754L20.1033 28.8116L19.1402 28.6182ZM18.7259 32.6875H17.4527V33.6699H18.7259V32.6875ZM21.1713 33.1787L20.6896 33.0824L20.5721 33.6699H21.1713V33.1787ZM22.2715 27.6775V27.1864H21.8688L21.7898 27.5812L22.2715 27.6775ZM23.5525 27.6775L24.0341 27.7739L24.1516 27.1864H23.5525V27.6775ZM22.4522 33.1787V33.6699H22.8549L22.9339 33.275L22.4522 33.1787ZM21.6529 33.275L22.7531 27.7739L21.7898 27.5812L20.6896 33.0824L21.6529 33.275ZM22.2715 28.1687H23.5525V27.1864H22.2715V28.1687ZM23.0708 27.5812L21.9706 33.0824L22.9339 33.275L24.0341 27.7739L23.0708 27.5812ZM22.4522 32.6875H21.1713V33.6699H22.4522V32.6875ZM25.1881 32.9744L24.9661 33.4126L24.973 33.4159L25.1881 32.9744ZM24.2529 32.1335L23.8333 32.3889L23.835 32.3916L24.2529 32.1335ZM24.1664 29.5794L23.7128 29.3909L23.7108 29.3959L24.1664 29.5794ZM24.8659 28.5341L25.2101 28.8845L25.2102 28.8845L24.8659 28.5341ZM25.9425 27.8347L25.7601 27.3787L25.7581 27.3795L25.9425 27.8347ZM28.646 27.8347L28.4465 28.2836L28.646 27.8347ZM29.5026 28.5577L29.8141 28.9374L30.1459 28.6652L29.9207 28.2999L29.5026 28.5577ZM28.5831 29.3122L28.176 29.587L28.4777 30.034L28.8947 29.6919L28.5831 29.3122ZM28.0408 28.8328L28.2605 28.3935L28.2605 28.3935L28.0408 28.8328ZM26.4141 28.8328L26.603 29.2862L26.6109 29.2828L26.4141 28.8328ZM25.7618 29.2886L25.4005 28.9558L25.4001 28.9563L25.7618 29.2886ZM25.3924 31.5362L24.9666 31.7811L24.9693 31.7857L25.3924 31.5362ZM27.5457 32.0392L27.7299 32.4946L27.7381 32.4911L27.5457 32.0392ZM28.2137 31.5519L28.5646 31.2082L28.1995 30.8355L27.8495 31.2224L28.2137 31.5519ZM28.9682 32.3221L29.3407 32.6422L29.6345 32.3004L29.3191 31.9784L28.9682 32.3221ZM27.9387 33.053L28.1105 33.5131L28.1138 33.5119L27.9387 33.053ZM26.642 32.7818C26.1389 32.7818 25.7311 32.6925 25.4032 32.5328L24.973 33.4159C25.4624 33.6544 26.0239 33.7642 26.642 33.7642V32.7818ZM25.41 32.5362C25.0806 32.3693 24.8395 32.1486 24.6708 31.8754L23.835 32.3916C24.1063 32.8309 24.4888 33.1708 24.9662 33.4126L25.41 32.5362ZM24.6725 31.8781C24.5045 31.6021 24.414 31.276 24.414 30.8839H23.4316C23.4316 31.435 23.5612 31.9419 23.8333 32.3889L24.6725 31.8781ZM24.414 30.8839C24.414 30.4759 24.4848 30.1038 24.6221 29.7628L23.7108 29.3959C23.5233 29.8618 23.4316 30.3594 23.4316 30.8839H24.414ZM24.62 29.7679C24.7635 29.4225 24.9604 29.1298 25.2101 28.8845L24.5217 28.1838C24.1741 28.5253 23.9047 28.9294 23.7129 29.3909L24.62 29.7679ZM25.2102 28.8845C25.4659 28.6331 25.7698 28.4346 26.1269 28.29L25.7581 27.3795C25.2875 27.5701 24.8736 27.8379 24.5216 28.1838L25.2102 28.8845ZM26.125 28.2908C26.4787 28.1493 26.8819 28.0744 27.3414 28.0744V27.0921C26.774 27.0921 26.2447 27.1848 25.7601 27.3787L26.125 28.2908ZM27.3414 28.0744C27.7782 28.0744 28.143 28.1487 28.4465 28.2836L28.8455 27.3859C28.3945 27.1855 27.8896 27.0921 27.3414 27.0921V28.0744ZM28.4465 28.2836C28.7443 28.4159 28.9486 28.5952 29.0845 28.8155L29.9207 28.2999C29.6688 27.8916 29.3021 27.5888 28.8455 27.3859L28.4465 28.2836ZM29.191 28.178L28.2715 28.9325L28.8947 29.6919L29.8141 28.9374L29.191 28.178ZM28.9902 29.0374C28.8028 28.7598 28.5583 28.5424 28.2605 28.3935L27.8212 29.2721C27.9635 29.3432 28.0805 29.4454 28.176 29.587L28.9902 29.0374ZM28.2605 28.3935C27.9581 28.2423 27.6175 28.1766 27.255 28.1766V29.1589C27.5002 29.1589 27.6835 29.2033 27.8212 29.2721L28.2605 28.3935ZM27.255 28.1766C26.8866 28.1766 26.5381 28.2424 26.2172 28.3828L26.6109 29.2828C26.793 29.2031 27.0051 29.1589 27.255 29.1589V28.1766ZM26.2252 28.3794C25.9086 28.5113 25.6323 28.7042 25.4005 28.9558L26.1231 29.6214C26.258 29.4748 26.4166 29.3639 26.603 29.2862L26.2252 28.3794ZM25.4001 28.9563C25.1753 29.2009 25.0061 29.4861 24.891 29.8059L25.8153 30.1387C25.8887 29.9346 25.992 29.764 26.1235 29.6209L25.4001 28.9563ZM24.891 29.8059C24.7765 30.1241 24.7205 30.4583 24.7205 30.8053H25.7028C25.7028 30.5656 25.7412 30.3445 25.8153 30.1387L24.891 29.8059ZM24.7205 30.8053C24.7205 31.156 24.7973 31.4865 24.9666 31.7811L25.8182 31.2914C25.7466 31.1668 25.7028 31.0101 25.7028 30.8053H24.7205ZM24.9693 31.7857C25.1421 32.0787 25.3917 32.3011 25.6993 32.4549L26.1386 31.5763C25.9851 31.4995 25.8837 31.4024 25.8155 31.2867L24.9693 31.7857ZM25.6993 32.4549C26.0134 32.612 26.3703 32.6797 26.752 32.6797V31.6973C26.4841 31.6973 26.2855 31.6497 26.1386 31.5763L25.6993 32.4549ZM26.752 32.6797C27.0938 32.6797 27.4214 32.6193 27.7298 32.4946L27.3616 31.5838C27.1776 31.6582 26.976 31.6973 26.752 31.6973V32.6797ZM27.7381 32.4911C28.0566 32.3556 28.3364 32.1485 28.578 31.8815L27.8495 31.2224C27.6929 31.3955 27.5273 31.5132 27.3534 31.5872L27.7381 32.4911ZM27.8629 31.8957L28.6173 32.6658L29.3191 31.9784L28.5646 31.2082L27.8629 31.8957ZM28.5957 32.002C28.3587 32.2777 28.0825 32.4724 27.7636 32.5941L28.1138 33.5119C28.5912 33.3297 29.0014 33.0371 29.3407 32.6422L28.5957 32.002ZM27.7669 32.5928C27.4353 32.7166 27.0621 32.7818 26.642 32.7818V33.7642C27.1649 33.7642 27.6562 33.6827 28.1105 33.5131L27.7669 32.5928ZM30.9282 31.9213L30.4403 31.8642L30.2908 33.142L31.2538 32.289L30.9282 31.9213ZM31.1011 30.4438L30.7757 30.0759L30.635 30.2003L30.6132 30.3868L31.1011 30.4438ZM34.2289 27.6775V27.1864H34.0428L33.9035 27.3096L34.2289 27.6775ZM35.7692 27.6775L36.0938 28.0461L37.07 27.1864H35.7692V27.6775ZM32.8693 30.2317L33.1875 30.6059L33.1939 30.6002L32.8693 30.2317ZM32.0284 30.9468L31.7101 30.5726L31.7027 30.5791L32.0284 30.9468ZM29.5136 33.1787L29.0319 33.0824L28.9144 33.6699H29.5136V33.1787ZM30.6138 27.6775V27.1864H30.2111L30.1322 27.5812L30.6138 27.6775ZM31.8791 27.6775L32.3607 27.7739L32.4782 27.1864H31.8791V27.6775ZM30.7788 33.1787V33.6699H31.1815L31.2605 33.275L30.7788 33.1787ZM33.3565 33.1787L32.9458 33.4481L33.0913 33.6699H33.3565V33.1787ZM31.7848 30.7818L31.4469 30.4253L31.1489 30.7077L31.374 31.0511L31.7848 30.7818ZM32.6885 29.9252L33.1013 29.6589L32.7804 29.1613L32.3506 29.5687L32.6885 29.9252ZM34.7868 33.1787V33.6699H35.6881L35.1996 32.9125L34.7868 33.1787ZM31.416 31.9784L31.5889 30.5009L30.6132 30.3868L30.4403 31.8642L31.416 31.9784ZM31.4265 30.8118L34.5543 28.0455L33.9035 27.3096L30.7757 30.0759L31.4265 30.8118ZM34.2289 28.1687H35.7692V27.1864H34.2289V28.1687ZM35.4446 27.3089L32.5446 29.8631L33.1939 30.6002L36.0938 28.0461L35.4446 27.3089ZM32.5511 29.8575L31.7102 30.5726L32.3466 31.321L33.1875 30.6058L32.5511 29.8575ZM31.7027 30.5791L30.6025 31.5536L31.2538 32.289L32.3541 31.3145L31.7027 30.5791ZM29.9952 33.275L31.0954 27.7739L30.1322 27.5812L29.0319 33.0824L29.9952 33.275ZM30.6138 28.1687H31.8791V27.1864H30.6138V28.1687ZM31.3974 27.5812L30.2972 33.0824L31.2605 33.275L32.3607 27.7739L31.3974 27.5812ZM30.7788 32.6875H29.5136V33.6699H30.7788V32.6875ZM33.7673 32.9094L32.1955 30.5124L31.374 31.0511L32.9458 33.4481L33.7673 32.9094ZM32.1227 31.1383L33.0264 30.2816L32.3506 29.5687L31.4469 30.4253L32.1227 31.1383ZM32.2758 30.1914L34.3741 33.4449L35.1996 32.9125L33.1013 29.6589L32.2758 30.1914ZM34.7868 32.6875H33.3565V33.6699H34.7868V32.6875ZM37.162 29.8937V29.4025H36.7588L36.6803 29.7981L37.162 29.8937ZM39.8105 29.8937L40.2923 29.9893L40.4087 29.4025H39.8105V29.8937ZM39.614 30.8839V31.3751H40.0173L40.0958 30.9795L39.614 30.8839ZM36.9656 30.8839L36.4838 30.7883L36.3674 31.3751H36.9656V30.8839ZM36.8005 32.1571L36.3189 32.0607L36.2014 32.6482H36.8005V32.1571ZM39.8026 32.1571L40.2835 32.2569L40.4063 31.6659H39.8026V32.1571ZM39.5904 33.1787V33.6699H39.9901L40.0713 33.2786L39.5904 33.1787ZM35.3309 33.1787L34.8493 33.0824L34.7318 33.6699H35.3309V33.1787ZM36.4312 27.6775V27.1864H36.0285L35.9495 27.5812L36.4312 27.6775ZM40.5885 27.6775L41.0694 27.7774L41.1922 27.1864H40.5885V27.6775ZM40.3763 28.6992V29.1904H40.7759L40.8572 28.7991L40.3763 28.6992ZM37.4921 28.6992V28.208H37.0894L37.0105 28.6029L37.4921 28.6992ZM37.162 30.3849H39.8105V29.4025H37.162V30.3849ZM39.3287 29.7981L39.1322 30.7883L40.0958 30.9795L40.2923 29.9893L39.3287 29.7981ZM39.614 30.3928H36.9656V31.3751H39.614V30.3928ZM37.4474 30.9795L37.6438 29.9893L36.6803 29.7981L36.4838 30.7883L37.4474 30.9795ZM36.8005 32.6482H39.8026V31.6659H36.8005V32.6482ZM39.3217 32.0572L39.1095 33.0788L40.0713 33.2786L40.2835 32.2569L39.3217 32.0572ZM39.5904 32.6875H35.3309V33.6699H39.5904V32.6875ZM35.8126 33.275L36.9128 27.7739L35.9495 27.5812L34.8493 33.0824L35.8126 33.275ZM36.4312 28.1687H40.5885V27.1864H36.4312V28.1687ZM40.1076 27.5777L39.8954 28.5993L40.8572 28.7991L41.0694 27.7774L40.1076 27.5777ZM40.3763 28.208H37.4921V29.1904H40.3763V28.208ZM37.0105 28.6029L36.3189 32.0607L37.2822 32.2534L37.9738 28.7955L37.0105 28.6029ZM41.7429 33.1787L41.2612 33.0829L41.1444 33.6699H41.7429V33.1787ZM42.631 28.7149L43.1127 28.8107L43.2295 28.2237H42.631V28.7149ZM40.8706 28.7149L40.3894 28.6165L40.2688 29.2061H40.8706V28.7149ZM41.0828 27.6775V27.1864H40.6819L40.6016 27.5791L41.0828 27.6775ZM45.8767 27.6775L46.3579 27.776L46.4785 27.1864H45.8767V27.6775ZM45.6645 28.7149V29.2061H46.0654L46.1457 28.8133L45.6645 28.7149ZM43.912 28.7149V28.2237H43.5096L43.4304 28.6182L43.912 28.7149ZM43.0161 33.1787V33.6699H43.4185L43.4976 33.2754L43.0161 33.1787ZM42.2247 33.2745L43.1127 28.8107L42.1493 28.6191L41.2612 33.0829L42.2247 33.2745ZM42.631 28.2237H40.8706V29.2061H42.631V28.2237ZM41.3518 28.8133L41.564 27.776L40.6016 27.5791L40.3894 28.6165L41.3518 28.8133ZM41.0828 28.1687H45.8767V27.1864H41.0828V28.1687ZM45.3955 27.5791L45.1833 28.6165L46.1457 28.8133L46.3579 27.776L45.3955 27.5791ZM45.6645 28.2237H43.912V29.2061H45.6645V28.2237ZM43.4304 28.6182L42.5345 33.0821L43.4976 33.2754L44.3935 28.8116L43.4304 28.6182ZM43.0161 32.6875H41.7429V33.6699H43.0161V32.6875Z" fill="black"/>
<defs>
<filter id="filter0_d_388_976" x="-0.898394" y="0.247559" width="79.7968" height="50.2482" filterUnits="userSpaceOnUse" color-interpolation-filters="sRGB">
<feFlood flood-opacity="0" result="BackgroundImageFix"/>
<feColorMatrix in="SourceAlpha" type="matrix" values="0 0 0 0 0 0 0 0 0 0 0 0 0 0 0 0 0 0 127 0" result="hardAlpha"/>
<feOffset dy="1.14449"/>
<feGaussianBlur stdDeviation="0.572244"/>
<feComposite in2="hardAlpha" operator="out"/>
<feColorMatrix type="matrix" values="0 0 0 0 0 0 0 0 0 0 0 0 0 0 0 0 0 0 0.25 0"/>
<feBlend mode="normal" in2="BackgroundImageFix" result="effect1_dropShadow_388_976"/>
<feBlend mode="normal" in="SourceGraphic" in2="effect1_dropShadow_388_976" result="shape"/>
</filter>
</defs>
</svg>
